# xmcd CD database file
#
# Track frame offsets:
#	150
#	62332
#	92162
#	164852
#	192995
#
# Disc length: 3231 seconds
#
# Revision: 0
# Processed by: cddbd v1.5.2PL0 Copyright (c) Steve Scherf et al.
# Submitted via: CDex 1.51
#
DISCID=400c9d05
DTITLE=John Coltrane - Village Vanguard Special Selection
DYEAR=1900
DGENRE=Jazz
TTITLE0=Spiritual
TTITLE1=Softly As In A Morning Sunrise
TTITLE2=Chasin' The Trane
TTITLE3=Greensleeves
TTITLE4=Impression
EXTD=
EXTT0=
EXTT1=
EXTT2=
EXTT3=
EXTT4=
PLAYORDER=
